<svg width="301" height="56" viewBox="0 0 301 56" fill="none" xmlns="http://www.w3.org/2000/svg">
<path d="M275.5 0.174805H25.5C11.6929 0.174805 0.5 12.616 0.5 27.9629C0.5 43.3099 11.6929 55.751 25.5 55.751H275.5C289.307 55.751 300.5 43.3099 300.5 27.9629C300.5 12.616 289.307 0.174805 275.5 0.174805Z" fill="url(#paint0_linear_62_2)"/>
<path d="M254 37.0075V34.7845C254 33.6053 253.579 32.4744 252.828 31.6406C252.078 30.8068 251.061 30.3384 250 30.3384H242C240.939 30.3384 239.922 30.8068 239.172 31.6406C238.421 32.4744 238 33.6053 238 34.7845V37.0075" stroke="white" stroke-width="1.5"/>
<path d="M246 25.8922C248.209 25.8922 250 23.9016 250 21.4461C250 18.9906 248.209 17 246 17C243.791 17 242 18.9906 242 21.4461C242 23.9016 243.791 25.8922 246 25.8922Z" stroke="white" stroke-width="1.5"/>
<path d="M100.278 24.4375H97.7898C97.7443 24.1155 97.6515 23.8295 97.5114 23.5795C97.3712 23.3258 97.1913 23.1098 96.9716 22.9318C96.7519 22.7538 96.4981 22.6174 96.2102 22.5227C95.9261 22.428 95.6174 22.3807 95.2841 22.3807C94.6818 22.3807 94.1572 22.5303 93.7102 22.8295C93.2633 23.125 92.9167 23.5568 92.6705 24.125C92.4242 24.6894 92.3011 25.375 92.3011 26.1818C92.3011 27.0114 92.4242 27.7083 92.6705 28.2727C92.9205 28.8371 93.2689 29.2633 93.7159 29.5511C94.1629 29.839 94.6799 29.983 95.267 29.983C95.5966 29.983 95.9015 29.9394 96.1818 29.8523C96.4659 29.7652 96.7178 29.6383 96.9375 29.4716C97.1572 29.3011 97.339 29.0947 97.483 28.8523C97.6307 28.6098 97.733 28.3333 97.7898 28.0227L100.278 28.0341C100.214 28.5682 100.053 29.0833 99.7955 29.5795C99.5417 30.072 99.1989 30.5133 98.767 30.9034C98.339 31.2898 97.8277 31.5966 97.233 31.8239C96.642 32.0473 95.9735 32.1591 95.2273 32.1591C94.1894 32.1591 93.2614 31.9242 92.4432 31.4545C91.6288 30.9848 90.9848 30.3049 90.5114 29.4148C90.0417 28.5246 89.8068 27.447 89.8068 26.1818C89.8068 24.9129 90.0455 23.8333 90.5227 22.9432C91 22.053 91.6477 21.375 92.4659 20.9091C93.2841 20.4394 94.2045 20.2045 95.2273 20.2045C95.9015 20.2045 96.5265 20.2992 97.1023 20.4886C97.6818 20.678 98.1951 20.9545 98.642 21.3182C99.089 21.678 99.4527 22.1193 99.733 22.642C100.017 23.1648 100.199 23.7633 100.278 24.4375ZM101.997 32V23.2727H104.344V24.7955H104.435C104.594 24.2538 104.861 23.8447 105.236 23.5682C105.611 23.2879 106.043 23.1477 106.531 23.1477C106.652 23.1477 106.783 23.1553 106.923 23.1705C107.063 23.1856 107.187 23.2064 107.293 23.233V25.3807C107.179 25.3466 107.022 25.3163 106.821 25.2898C106.62 25.2633 106.437 25.25 106.27 25.25C105.914 25.25 105.596 25.3277 105.315 25.483C105.039 25.6345 104.819 25.8466 104.656 26.1193C104.497 26.392 104.418 26.7064 104.418 27.0625V32H101.997ZM112.115 32.1705C111.217 32.1705 110.445 31.9886 109.797 31.625C109.153 31.2576 108.657 30.7386 108.308 30.0682C107.96 29.3939 107.786 28.5966 107.786 27.6761C107.786 26.7784 107.96 25.9905 108.308 25.3125C108.657 24.6345 109.147 24.1061 109.78 23.7273C110.416 23.3485 111.162 23.1591 112.018 23.1591C112.594 23.1591 113.13 23.2519 113.626 23.4375C114.126 23.6193 114.562 23.8939 114.933 24.2614C115.308 24.6288 115.6 25.0909 115.808 25.6477C116.017 26.2008 116.121 26.8485 116.121 27.5909V28.2557H108.751V26.7557H113.842C113.842 26.4072 113.767 26.0985 113.615 25.8295C113.464 25.5606 113.253 25.3504 112.984 25.1989C112.719 25.0436 112.411 24.9659 112.058 24.9659C111.691 24.9659 111.365 25.0511 111.081 25.2216C110.801 25.3883 110.581 25.6136 110.422 25.8977C110.263 26.178 110.181 26.4905 110.178 26.8352V28.2614C110.178 28.6932 110.257 29.0663 110.416 29.3807C110.579 29.6951 110.808 29.9375 111.104 30.108C111.399 30.2784 111.75 30.3636 112.155 30.3636C112.424 30.3636 112.67 30.3258 112.893 30.25C113.117 30.1742 113.308 30.0606 113.467 29.9091C113.626 29.7576 113.748 29.572 113.831 29.3523L116.07 29.5C115.956 30.0379 115.723 30.5076 115.371 30.9091C115.022 31.3068 114.571 31.6174 114.018 31.8409C113.469 32.0606 112.835 32.1705 112.115 32.1705ZM120.189 32.1648C119.632 32.1648 119.136 32.0682 118.7 31.875C118.265 31.678 117.92 31.3883 117.666 31.0057C117.416 30.6193 117.291 30.1383 117.291 29.5625C117.291 29.0777 117.38 28.6705 117.558 28.3409C117.736 28.0114 117.979 27.7462 118.286 27.5455C118.592 27.3447 118.941 27.1932 119.331 27.0909C119.725 26.9886 120.138 26.9167 120.57 26.875C121.077 26.822 121.486 26.7727 121.797 26.7273C122.107 26.678 122.333 26.6061 122.473 26.5114C122.613 26.4167 122.683 26.2765 122.683 26.0909V26.0568C122.683 25.697 122.57 25.4186 122.342 25.2216C122.119 25.0246 121.801 24.9261 121.388 24.9261C120.952 24.9261 120.606 25.0227 120.348 25.2159C120.09 25.4053 119.92 25.6439 119.837 25.9318L117.598 25.75C117.712 25.2197 117.935 24.7614 118.268 24.375C118.602 23.9848 119.032 23.6856 119.558 23.4773C120.089 23.2652 120.702 23.1591 121.399 23.1591C121.884 23.1591 122.348 23.2159 122.791 23.3295C123.238 23.4432 123.634 23.6193 123.979 23.858C124.327 24.0966 124.602 24.4034 124.803 24.7784C125.003 25.1496 125.104 25.5947 125.104 26.1136V32H122.808V30.7898H122.74C122.6 31.0625 122.412 31.303 122.178 31.5114C121.943 31.7159 121.661 31.8769 121.331 31.9943C121.001 32.108 120.621 32.1648 120.189 32.1648ZM120.882 30.4943C121.238 30.4943 121.553 30.4242 121.825 30.2841C122.098 30.1402 122.312 29.947 122.467 29.7045C122.623 29.4621 122.7 29.1875 122.7 28.8807V27.9545C122.625 28.0038 122.52 28.0492 122.388 28.0909C122.259 28.1288 122.113 28.1648 121.95 28.1989C121.787 28.2292 121.625 28.2576 121.462 28.2841C121.299 28.3068 121.151 28.3277 121.018 28.3466C120.734 28.3883 120.486 28.4545 120.274 28.5455C120.062 28.6364 119.897 28.7595 119.78 28.9148C119.662 29.0663 119.604 29.2557 119.604 29.483C119.604 29.8125 119.723 30.0644 119.962 30.2386C120.204 30.4091 120.511 30.4943 120.882 30.4943ZM131.624 23.2727V25.0909H126.368V23.2727H131.624ZM127.561 21.1818H129.982V29.3182C129.982 29.5417 130.016 29.7159 130.084 29.8409C130.152 29.9621 130.247 30.0473 130.368 30.0966C130.493 30.1458 130.637 30.1705 130.8 30.1705C130.913 30.1705 131.027 30.161 131.141 30.142C131.254 30.1193 131.341 30.1023 131.402 30.0909L131.783 31.892C131.661 31.9299 131.491 31.9735 131.271 32.0227C131.052 32.0758 130.785 32.108 130.47 32.1193C129.887 32.142 129.375 32.0644 128.936 31.8864C128.5 31.7083 128.161 31.4318 127.919 31.0568C127.677 30.6818 127.557 30.2083 127.561 29.6364V21.1818ZM137.084 32.1705C136.186 32.1705 135.413 31.9886 134.766 31.625C134.122 31.2576 133.625 30.7386 133.277 30.0682C132.929 29.3939 132.754 28.5966 132.754 27.6761C132.754 26.7784 132.929 25.9905 133.277 25.3125C133.625 24.6345 134.116 24.1061 134.749 23.7273C135.385 23.3485 136.131 23.1591 136.987 23.1591C137.563 23.1591 138.099 23.2519 138.595 23.4375C139.095 23.6193 139.531 23.8939 139.902 24.2614C140.277 24.6288 140.569 25.0909 140.777 25.6477C140.985 26.2008 141.089 26.8485 141.089 27.5909V28.2557H133.72V26.7557H138.811C138.811 26.4072 138.735 26.0985 138.584 25.8295C138.432 25.5606 138.222 25.3504 137.953 25.1989C137.688 25.0436 137.379 24.9659 137.027 24.9659C136.66 24.9659 136.334 25.0511 136.05 25.2216C135.769 25.3883 135.55 25.6136 135.391 25.8977C135.232 26.178 135.15 26.4905 135.146 26.8352V28.2614C135.146 28.6932 135.226 29.0663 135.385 29.3807C135.548 29.6951 135.777 29.9375 136.072 30.108C136.368 30.2784 136.718 30.3636 137.124 30.3636C137.393 30.3636 137.639 30.3258 137.862 30.25C138.086 30.1742 138.277 30.0606 138.436 29.9091C138.595 29.7576 138.716 29.572 138.8 29.3523L141.038 29.5C140.925 30.0379 140.692 30.5076 140.339 30.9091C139.991 31.3068 139.54 31.6174 138.987 31.8409C138.438 32.0606 137.804 32.1705 137.084 32.1705ZM148.423 32H145.787L149.804 20.3636H152.974L156.986 32H154.349L151.435 23.0227H151.344L148.423 32ZM148.259 27.4261H154.486V29.3466H148.259V27.4261ZM161.878 32.1705C160.984 32.1705 160.215 31.9811 159.571 31.6023C158.931 31.2197 158.438 30.6894 158.094 30.0114C157.753 29.3333 157.582 28.553 157.582 27.6705C157.582 26.7765 157.755 25.9924 158.099 25.3182C158.448 24.6402 158.942 24.1117 159.582 23.733C160.223 23.3504 160.984 23.1591 161.866 23.1591C162.628 23.1591 163.295 23.2973 163.866 23.5739C164.438 23.8504 164.891 24.2386 165.224 24.7386C165.558 25.2386 165.741 25.8258 165.776 26.5H163.491C163.427 26.0644 163.257 25.714 162.98 25.4489C162.707 25.1799 162.349 25.0455 161.906 25.0455C161.531 25.0455 161.204 25.1477 160.923 25.3523C160.647 25.553 160.431 25.8466 160.276 26.233C160.12 26.6193 160.043 27.0871 160.043 27.6364C160.043 28.1932 160.118 28.6667 160.27 29.0568C160.425 29.447 160.643 29.7443 160.923 29.9489C161.204 30.1534 161.531 30.2557 161.906 30.2557C162.183 30.2557 162.431 30.1989 162.651 30.0852C162.874 29.9716 163.058 29.8068 163.202 29.5909C163.349 29.3712 163.446 29.108 163.491 28.8011H165.776C165.738 29.4678 165.556 30.0549 165.23 30.5625C164.908 31.0663 164.463 31.4602 163.895 31.7443C163.327 32.0284 162.654 32.1705 161.878 32.1705ZM171.268 32.1705C170.375 32.1705 169.606 31.9811 168.962 31.6023C168.321 31.2197 167.829 30.6894 167.484 30.0114C167.143 29.3333 166.973 28.553 166.973 27.6705C166.973 26.7765 167.145 25.9924 167.49 25.3182C167.839 24.6402 168.333 24.1117 168.973 23.733C169.613 23.3504 170.375 23.1591 171.257 23.1591C172.018 23.1591 172.685 23.2973 173.257 23.5739C173.829 23.8504 174.282 24.2386 174.615 24.7386C174.948 25.2386 175.132 25.8258 175.166 26.5H172.882C172.818 26.0644 172.647 25.714 172.371 25.4489C172.098 25.1799 171.74 25.0455 171.297 25.0455C170.922 25.0455 170.594 25.1477 170.314 25.3523C170.037 25.553 169.821 25.8466 169.666 26.233C169.511 26.6193 169.433 27.0871 169.433 27.6364C169.433 28.1932 169.509 28.6667 169.661 29.0568C169.816 29.447 170.034 29.7443 170.314 29.9489C170.594 30.1534 170.922 30.2557 171.297 30.2557C171.573 30.2557 171.821 30.1989 172.041 30.0852C172.265 29.9716 172.448 29.8068 172.592 29.5909C172.74 29.3712 172.837 29.108 172.882 28.8011H175.166C175.128 29.4678 174.946 30.0549 174.621 30.5625C174.299 31.0663 173.854 31.4602 173.286 31.7443C172.717 32.0284 172.045 32.1705 171.268 32.1705ZM180.659 32.1705C179.777 32.1705 179.013 31.983 178.369 31.608C177.729 31.2292 177.235 30.7027 176.886 30.0284C176.538 29.3504 176.364 28.5644 176.364 27.6705C176.364 26.7689 176.538 25.9811 176.886 25.3068C177.235 24.6288 177.729 24.1023 178.369 23.7273C179.013 23.3485 179.777 23.1591 180.659 23.1591C181.542 23.1591 182.303 23.3485 182.943 23.7273C183.587 24.1023 184.083 24.6288 184.432 25.3068C184.78 25.9811 184.955 26.7689 184.955 27.6705C184.955 28.5644 184.78 29.3504 184.432 30.0284C184.083 30.7027 183.587 31.2292 182.943 31.608C182.303 31.983 181.542 32.1705 180.659 32.1705ZM180.67 30.2955C181.072 30.2955 181.407 30.1818 181.676 29.9545C181.945 29.7235 182.148 29.4091 182.284 29.0114C182.424 28.6136 182.494 28.161 182.494 27.6534C182.494 27.1458 182.424 26.6932 182.284 26.2955C182.148 25.8977 181.945 25.5833 181.676 25.3523C181.407 25.1212 181.072 25.0057 180.67 25.0057C180.265 25.0057 179.924 25.1212 179.648 25.3523C179.375 25.5833 179.169 25.8977 179.028 26.2955C178.892 26.6932 178.824 27.1458 178.824 27.6534C178.824 28.161 178.892 28.6136 179.028 29.0114C179.169 29.4091 179.375 29.7235 179.648 29.9545C179.924 30.1818 180.265 30.2955 180.67 30.2955ZM192.125 28.2841V23.2727H194.545V32H192.222V30.4148H192.131C191.934 30.9261 191.606 31.3371 191.148 31.6477C190.693 31.9583 190.138 32.1136 189.483 32.1136C188.9 32.1136 188.386 31.9811 187.943 31.7159C187.5 31.4508 187.153 31.0739 186.903 30.5852C186.657 30.0966 186.532 29.5114 186.528 28.8295V23.2727H188.949V28.3977C188.953 28.9129 189.091 29.3201 189.364 29.6193C189.636 29.9186 190.002 30.0682 190.46 30.0682C190.752 30.0682 191.025 30.0019 191.278 29.8693C191.532 29.733 191.737 29.5322 191.892 29.267C192.051 29.0019 192.129 28.6742 192.125 28.2841ZM198.902 26.9545V32H196.482V23.2727H198.788V24.8125H198.891C199.084 24.3049 199.408 23.9034 199.862 23.608C200.317 23.3087 200.868 23.1591 201.516 23.1591C202.122 23.1591 202.65 23.2917 203.101 23.5568C203.552 23.822 203.902 24.2008 204.152 24.6932C204.402 25.1818 204.527 25.7652 204.527 26.4432V32H202.107V26.875C202.11 26.3409 201.974 25.9242 201.697 25.625C201.421 25.322 201.04 25.1705 200.555 25.1705C200.23 25.1705 199.942 25.2405 199.692 25.3807C199.446 25.5208 199.252 25.7254 199.112 25.9943C198.976 26.2595 198.906 26.5795 198.902 26.9545ZM211.077 23.2727V25.0909H205.821V23.2727H211.077ZM207.014 21.1818H209.435V29.3182C209.435 29.5417 209.469 29.7159 209.537 29.8409C209.605 29.9621 209.7 30.0473 209.821 30.0966C209.946 30.1458 210.09 30.1705 210.253 30.1705C210.366 30.1705 210.48 30.161 210.594 30.142C210.707 30.1193 210.795 30.1023 210.855 30.0909L211.236 31.892C211.115 31.9299 210.944 31.9735 210.724 32.0227C210.505 32.0758 210.238 32.108 209.923 32.1193C209.34 32.142 208.829 32.0644 208.389 31.8864C207.954 31.7083 207.615 31.4318 207.372 31.0568C207.13 30.6818 207.01 30.2083 207.014 29.6364V21.1818Z" fill="white"/>
<defs>
<linearGradient id="paint0_linear_62_2" x1="0.5" y1="0.174805" x2="30000.5" y2="0.174805" gradientUnits="userSpaceOnUse">
<stop stop-color="#0EA5E9"/>
<stop offset="1" stop-color="#3B82F6"/>
</linearGradient>
</defs>
</svg>
