<svg width="300" height="56" viewBox="0 0 300 56" fill="none" xmlns="http://www.w3.org/2000/svg">
<path d="M272 0H28C12.536 0 0 12.536 0 28C0 43.464 12.536 56 28 56H272C287.464 56 300 43.464 300 28C300 12.536 287.464 0 272 0Z" fill="url(#paint0_linear_62_2)"/>
<path d="M113.485 27.125C113.406 26.8485 113.294 26.6042 113.15 26.392C113.006 26.1761 112.83 25.9943 112.621 25.8466C112.417 25.6951 112.182 25.5795 111.917 25.5C111.656 25.4205 111.366 25.3807 111.048 25.3807C110.453 25.3807 109.93 25.5284 109.479 25.8239C109.032 26.1193 108.684 26.5492 108.434 27.1136C108.184 27.6742 108.059 28.3598 108.059 29.1705C108.059 29.9811 108.182 30.6705 108.428 31.2386C108.674 31.8068 109.023 32.2405 109.474 32.5398C109.924 32.8352 110.457 32.983 111.07 32.983C111.627 32.983 112.103 32.8845 112.496 32.6875C112.894 32.4867 113.197 32.2045 113.406 31.8409C113.618 31.4773 113.724 31.0473 113.724 30.5511L114.224 30.625H111.224V28.7727H116.093V30.2386C116.093 31.2614 115.877 32.1402 115.445 32.875C115.013 33.6061 114.419 34.1705 113.661 34.5682C112.904 34.9621 112.036 35.1591 111.059 35.1591C109.968 35.1591 109.01 34.9186 108.184 34.4375C107.358 33.9527 106.714 33.2652 106.252 32.375C105.794 31.4811 105.565 30.4205 105.565 29.1932C105.565 28.25 105.701 27.4091 105.974 26.6705C106.25 25.928 106.637 25.2992 107.133 24.7841C107.629 24.2689 108.207 23.8769 108.866 23.608C109.525 23.339 110.239 23.2045 111.008 23.2045C111.667 23.2045 112.281 23.3011 112.849 23.4943C113.417 23.6837 113.921 23.9527 114.36 24.3011C114.803 24.6496 115.165 25.0644 115.445 25.5455C115.726 26.0227 115.906 26.5492 115.985 27.125H113.485ZM121.873 35.1705C120.975 35.1705 120.202 34.9886 119.555 34.625C118.911 34.2576 118.415 33.7386 118.066 33.0682C117.718 32.3939 117.543 31.5966 117.543 30.6761C117.543 29.7784 117.718 28.9905 118.066 28.3125C118.415 27.6345 118.905 27.1061 119.538 26.7273C120.174 26.3485 120.92 26.1591 121.776 26.1591C122.352 26.1591 122.888 26.2519 123.384 26.4375C123.884 26.6193 124.32 26.8939 124.691 27.2614C125.066 27.6288 125.358 28.0909 125.566 28.6477C125.774 29.2008 125.879 29.8485 125.879 30.5909V31.2557H118.509V29.7557H123.6C123.6 29.4072 123.524 29.0985 123.373 28.8295C123.221 28.5606 123.011 28.3504 122.742 28.1989C122.477 28.0436 122.168 27.9659 121.816 27.9659C121.449 27.9659 121.123 28.0511 120.839 28.2216C120.558 28.3883 120.339 28.6136 120.18 28.8977C120.021 29.178 119.939 29.4905 119.935 29.8352V31.2614C119.935 31.6932 120.015 32.0663 120.174 32.3807C120.337 32.6951 120.566 32.9375 120.862 33.108C121.157 33.2784 121.507 33.3636 121.913 33.3636C122.182 33.3636 122.428 33.3258 122.651 33.25C122.875 33.1742 123.066 33.0606 123.225 32.9091C123.384 32.7576 123.505 32.572 123.589 32.3523L125.827 32.5C125.714 33.0379 125.481 33.5076 125.129 33.9091C124.78 34.3068 124.329 34.6174 123.776 34.8409C123.227 35.0606 122.593 35.1705 121.873 35.1705ZM132.1 26.2727V28.0909H126.844V26.2727H132.1ZM128.038 24.1818H130.458V32.3182C130.458 32.5417 130.492 32.7159 130.56 32.8409C130.629 32.9621 130.723 33.0473 130.844 33.0966C130.969 33.1458 131.113 33.1705 131.276 33.1705C131.39 33.1705 131.504 33.161 131.617 33.142C131.731 33.1193 131.818 33.1023 131.879 33.0909L132.259 34.892C132.138 34.9299 131.968 34.9735 131.748 35.0227C131.528 35.0758 131.261 35.108 130.947 35.1193C130.363 35.142 129.852 35.0644 129.413 34.8864C128.977 34.7083 128.638 34.4318 128.396 34.0568C128.153 33.6818 128.034 33.2083 128.038 32.6364V24.1818ZM143.738 26.7102C143.692 26.2519 143.497 25.8958 143.153 25.642C142.808 25.3883 142.34 25.2614 141.749 25.2614C141.348 25.2614 141.009 25.3182 140.732 25.4318C140.456 25.5417 140.244 25.6951 140.096 25.892C139.952 26.089 139.88 26.3125 139.88 26.5625C139.872 26.7708 139.916 26.9527 140.011 27.108C140.109 27.2633 140.244 27.3977 140.414 27.5114C140.585 27.6212 140.781 27.7178 141.005 27.8011C141.228 27.8807 141.467 27.9489 141.721 28.0057L142.766 28.2557C143.274 28.3693 143.74 28.5208 144.164 28.7102C144.588 28.8996 144.956 29.1326 145.266 29.4091C145.577 29.6856 145.817 30.0114 145.988 30.3864C146.162 30.7614 146.251 31.1913 146.255 31.6761C146.251 32.3883 146.069 33.0057 145.71 33.5284C145.353 34.0473 144.838 34.4508 144.164 34.7386C143.494 35.0227 142.685 35.1648 141.738 35.1648C140.799 35.1648 139.98 35.0208 139.283 34.733C138.59 34.4451 138.049 34.0189 137.658 33.4545C137.272 32.8864 137.069 32.1837 137.05 31.3466H139.431C139.458 31.7367 139.569 32.0625 139.766 32.3239C139.967 32.5814 140.234 32.7765 140.567 32.9091C140.905 33.0379 141.285 33.1023 141.71 33.1023C142.126 33.1023 142.488 33.0417 142.795 32.9205C143.105 32.7992 143.346 32.6307 143.516 32.4148C143.687 32.1989 143.772 31.9508 143.772 31.6705C143.772 31.4091 143.694 31.1894 143.539 31.0114C143.388 30.8333 143.164 30.6818 142.869 30.5568C142.577 30.4318 142.219 30.3182 141.795 30.2159L140.528 29.8977C139.547 29.6591 138.772 29.286 138.204 28.7784C137.636 28.2708 137.353 27.5871 137.357 26.7273C137.353 26.0227 137.541 25.4072 137.92 24.8807C138.302 24.3542 138.827 23.9432 139.494 23.6477C140.16 23.3523 140.918 23.2045 141.766 23.2045C142.63 23.2045 143.384 23.3523 144.028 23.6477C144.675 23.9432 145.179 24.3542 145.539 24.8807C145.899 25.4072 146.085 26.017 146.096 26.7102H143.738ZM152.506 26.2727V28.0909H147.251V26.2727H152.506ZM148.444 24.1818H150.864V32.3182C150.864 32.5417 150.898 32.7159 150.967 32.8409C151.035 32.9621 151.129 33.0473 151.251 33.0966C151.376 33.1458 151.52 33.1705 151.683 33.1705C151.796 33.1705 151.91 33.161 152.023 33.142C152.137 33.1193 152.224 33.1023 152.285 33.0909L152.665 34.892C152.544 34.9299 152.374 34.9735 152.154 35.0227C151.934 35.0758 151.667 35.108 151.353 35.1193C150.77 35.142 150.258 35.0644 149.819 34.8864C149.383 34.7083 149.044 34.4318 148.802 34.0568C148.559 33.6818 148.44 33.2083 148.444 32.6364V24.1818ZM156.572 35.1648C156.015 35.1648 155.519 35.0682 155.083 34.875C154.647 34.678 154.303 34.3883 154.049 34.0057C153.799 33.6193 153.674 33.1383 153.674 32.5625C153.674 32.0777 153.763 31.6705 153.941 31.3409C154.119 31.0114 154.362 30.7462 154.668 30.5455C154.975 30.3447 155.324 30.1932 155.714 30.0909C156.108 29.9886 156.521 29.9167 156.952 29.875C157.46 29.822 157.869 29.7727 158.18 29.7273C158.49 29.678 158.716 29.6061 158.856 29.5114C158.996 29.4167 159.066 29.2765 159.066 29.0909V29.0568C159.066 28.697 158.952 28.4186 158.725 28.2216C158.502 28.0246 158.183 27.9261 157.771 27.9261C157.335 27.9261 156.988 28.0227 156.731 28.2159C156.473 28.4053 156.303 28.6439 156.219 28.9318L153.981 28.75C154.094 28.2197 154.318 27.7614 154.651 27.375C154.985 26.9848 155.415 26.6856 155.941 26.4773C156.471 26.2652 157.085 26.1591 157.782 26.1591C158.267 26.1591 158.731 26.2159 159.174 26.3295C159.621 26.4432 160.017 26.6193 160.362 26.858C160.71 27.0966 160.985 27.4034 161.185 27.7784C161.386 28.1496 161.487 28.5947 161.487 29.1136V35H159.191V33.7898H159.123C158.983 34.0625 158.795 34.303 158.56 34.5114C158.326 34.7159 158.043 34.8769 157.714 34.9943C157.384 35.108 157.004 35.1648 156.572 35.1648ZM157.265 33.4943C157.621 33.4943 157.935 33.4242 158.208 33.2841C158.481 33.1402 158.695 32.947 158.85 32.7045C159.005 32.4621 159.083 32.1875 159.083 31.8807V30.9545C159.007 31.0038 158.903 31.0492 158.771 31.0909C158.642 31.1288 158.496 31.1648 158.333 31.1989C158.17 31.2292 158.007 31.2576 157.844 31.2841C157.682 31.3068 157.534 31.3277 157.401 31.3466C157.117 31.3883 156.869 31.4545 156.657 31.5455C156.445 31.6364 156.28 31.7595 156.163 31.9148C156.045 32.0663 155.987 32.2557 155.987 32.483C155.987 32.8125 156.106 33.0644 156.344 33.2386C156.587 33.4091 156.894 33.4943 157.265 33.4943ZM163.364 35V26.2727H165.711V27.7955H165.802C165.961 27.2538 166.228 26.8447 166.603 26.5682C166.978 26.2879 167.41 26.1477 167.898 26.1477C168.02 26.1477 168.15 26.1553 168.29 26.1705C168.431 26.1856 168.554 26.2064 168.66 26.233V28.3807C168.546 28.3466 168.389 28.3163 168.188 28.2898C167.987 28.2633 167.804 28.25 167.637 28.25C167.281 28.25 166.963 28.3277 166.683 28.483C166.406 28.6345 166.186 28.8466 166.023 29.1193C165.864 29.392 165.785 29.7064 165.785 30.0625V35H163.364ZM174.991 26.2727V28.0909H169.735V26.2727H174.991ZM170.928 24.1818H173.349V32.3182C173.349 32.5417 173.383 32.7159 173.451 32.8409C173.519 32.9621 173.614 33.0473 173.735 33.0966C173.86 33.1458 174.004 33.1705 174.167 33.1705C174.281 33.1705 174.394 33.161 174.508 33.142C174.621 33.1193 174.709 33.1023 174.769 33.0909L175.15 34.892C175.029 34.9299 174.858 34.9735 174.638 35.0227C174.419 35.0758 174.152 35.108 173.837 35.1193C173.254 35.142 172.743 35.0644 172.303 34.8864C171.868 34.7083 171.529 34.4318 171.286 34.0568C171.044 33.6818 170.924 33.2083 170.928 32.6364V24.1818ZM180.451 35.1705C179.553 35.1705 178.781 34.9886 178.133 34.625C177.489 34.2576 176.993 33.7386 176.644 33.0682C176.296 32.3939 176.121 31.5966 176.121 30.6761C176.121 29.7784 176.296 28.9905 176.644 28.3125C176.993 27.6345 177.483 27.1061 178.116 26.7273C178.752 26.3485 179.498 26.1591 180.354 26.1591C180.93 26.1591 181.466 26.2519 181.962 26.4375C182.462 26.6193 182.898 26.8939 183.269 27.2614C183.644 27.6288 183.936 28.0909 184.144 28.6477C184.353 29.2008 184.457 29.8485 184.457 30.5909V31.2557H177.087V29.7557H182.178C182.178 29.4072 182.103 29.0985 181.951 28.8295C181.799 28.5606 181.589 28.3504 181.32 28.1989C181.055 28.0436 180.746 27.9659 180.394 27.9659C180.027 27.9659 179.701 28.0511 179.417 28.2216C179.137 28.3883 178.917 28.6136 178.758 28.8977C178.599 29.178 178.517 29.4905 178.513 29.8352V31.2614C178.513 31.6932 178.593 32.0663 178.752 32.3807C178.915 32.6951 179.144 32.9375 179.44 33.108C179.735 33.2784 180.085 33.3636 180.491 33.3636C180.76 33.3636 181.006 33.3258 181.229 33.25C181.453 33.1742 181.644 33.0606 181.803 32.9091C181.962 32.7576 182.084 32.572 182.167 32.3523L184.406 32.5C184.292 33.0379 184.059 33.5076 183.707 33.9091C183.358 34.3068 182.907 34.6174 182.354 34.8409C181.805 35.0606 181.171 35.1705 180.451 35.1705ZM189.252 35.142C188.589 35.142 187.989 34.9716 187.451 34.6307C186.917 34.286 186.493 33.7803 186.178 33.1136C185.868 32.4432 185.712 31.6212 185.712 30.6477C185.712 29.6477 185.873 28.8163 186.195 28.1534C186.517 27.4867 186.945 26.9886 187.479 26.6591C188.017 26.3258 188.606 26.1591 189.246 26.1591C189.735 26.1591 190.142 26.2424 190.468 26.4091C190.798 26.572 191.063 26.7765 191.263 27.0227C191.468 27.2652 191.623 27.5038 191.729 27.7386H191.803V23.3636H194.218V35H191.832V33.6023H191.729C191.616 33.8447 191.455 34.0852 191.246 34.3239C191.042 34.5587 190.775 34.7538 190.445 34.9091C190.12 35.0644 189.722 35.142 189.252 35.142ZM190.019 33.2159C190.409 33.2159 190.739 33.1098 191.008 32.8977C191.281 32.6818 191.489 32.3807 191.633 31.9943C191.781 31.608 191.854 31.1553 191.854 30.6364C191.854 30.1174 191.782 29.6667 191.638 29.2841C191.495 28.9015 191.286 28.6061 191.013 28.3977C190.741 28.1894 190.409 28.0852 190.019 28.0852C189.621 28.0852 189.286 28.1932 189.013 28.4091C188.741 28.625 188.534 28.9242 188.394 29.3068C188.254 29.6894 188.184 30.1326 188.184 30.6364C188.184 31.1439 188.254 31.5928 188.394 31.983C188.538 32.3693 188.745 32.6723 189.013 32.892C189.286 33.108 189.621 33.2159 190.019 33.2159Z" fill="white"/>
<defs>
<linearGradient id="paint0_linear_62_2" x1="0" y1="0" x2="30000" y2="0" gradientUnits="userSpaceOnUse">
<stop stop-color="#0EA5E9"/>
<stop offset="1" stop-color="#3B82F6"/>
</linearGradient>
</defs>
</svg>
