<svg width="302" height="54" viewBox="0 0 302 54" fill="none" xmlns="http://www.w3.org/2000/svg">
<path d="M275 1H27C12.6406 1 1 12.6406 1 27C1 41.3594 12.6406 53 27 53H275C289.359 53 301 41.3594 301 27C301 12.6406 289.359 1 275 1Z" fill="white" stroke="#D1D5DB" stroke-opacity="0.6"/>
<path d="M51 26C53.2091 26 55 24.2091 55 22C55 19.7909 53.2091 18 51 18C48.7909 18 47 19.7909 47 22C47 24.2091 48.7909 26 51 26Z" stroke="#64748B" stroke-width="1.5"/>
<path d="M58 36V34C58 32.9391 57.5786 31.9217 56.8284 31.1716C56.0783 30.4214 55.0609 30 54 30H50C48.9391 30 47.9217 30.4214 47.1716 31.1716C46.4214 31.9217 46 32.9391 46 34V36" stroke="#64748B" stroke-width="1.5"/>
<path d="M64 23V29M67 26H61" stroke="#64748B" stroke-width="1.5" stroke-linecap="round"/>
<path d="M109.773 25H108.364C108.28 24.5947 108.134 24.2386 107.926 23.9318C107.722 23.625 107.472 23.3674 107.176 23.1591C106.884 22.947 106.561 22.7879 106.205 22.6818C105.848 22.5758 105.477 22.5227 105.091 22.5227C104.386 22.5227 103.748 22.7008 103.176 23.0568C102.608 23.4129 102.155 23.9375 101.818 24.6307C101.485 25.3239 101.318 26.1742 101.318 27.1818C101.318 28.1894 101.485 29.0398 101.818 29.733C102.155 30.4261 102.608 30.9508 103.176 31.3068C103.748 31.6629 104.386 31.8409 105.091 31.8409C105.477 31.8409 105.848 31.7879 106.205 31.6818C106.561 31.5758 106.884 31.4186 107.176 31.2102C107.472 30.9981 107.722 30.7386 107.926 30.4318C108.134 30.1212 108.28 29.7652 108.364 29.3636H109.773C109.667 29.9583 109.473 30.4905 109.193 30.9602C108.913 31.4299 108.564 31.8295 108.148 32.1591C107.731 32.4848 107.263 32.733 106.744 32.9034C106.229 33.0739 105.678 33.1591 105.091 33.1591C104.098 33.1591 103.216 32.9167 102.443 32.4318C101.67 31.947 101.063 31.2576 100.619 30.3636C100.176 29.4697 99.9545 28.4091 99.9545 27.1818C99.9545 25.9545 100.176 24.8939 100.619 24C101.063 23.1061 101.67 22.4167 102.443 21.9318C103.216 21.447 104.098 21.2045 105.091 21.2045C105.678 21.2045 106.229 21.2898 106.744 21.4602C107.263 21.6307 107.731 21.8807 108.148 22.2102C108.564 22.536 108.913 22.9337 109.193 23.4034C109.473 23.8693 109.667 24.4015 109.773 25ZM111.868 33V24.2727H113.163V25.5909H113.254C113.413 25.1591 113.701 24.8087 114.118 24.5398C114.535 24.2708 115.004 24.1364 115.527 24.1364C115.625 24.1364 115.749 24.1383 115.896 24.142C116.044 24.1458 116.156 24.1515 116.232 24.1591V25.5227C116.186 25.5114 116.082 25.4943 115.919 25.4716C115.76 25.4451 115.591 25.4318 115.413 25.4318C114.989 25.4318 114.61 25.5208 114.277 25.6989C113.947 25.8731 113.686 26.1155 113.493 26.4261C113.304 26.733 113.209 27.0833 113.209 27.4773V33H111.868ZM121.214 33.1818C120.374 33.1818 119.648 32.9962 119.038 32.625C118.432 32.25 117.964 31.7273 117.635 31.0568C117.309 30.3826 117.146 29.5985 117.146 28.7045C117.146 27.8106 117.309 27.0227 117.635 26.3409C117.964 25.6553 118.423 25.1212 119.01 24.7386C119.601 24.3523 120.29 24.1591 121.078 24.1591C121.533 24.1591 121.982 24.2348 122.425 24.3864C122.868 24.5379 123.271 24.7841 123.635 25.125C123.999 25.4621 124.288 25.9091 124.504 26.4659C124.72 27.0227 124.828 27.7083 124.828 28.5227V29.0909H118.101V27.9318H123.464C123.464 27.4394 123.366 27 123.169 26.6136C122.976 26.2273 122.699 25.9223 122.339 25.6989C121.983 25.4754 121.563 25.3636 121.078 25.3636C120.544 25.3636 120.082 25.4962 119.692 25.7614C119.305 26.0227 119.008 26.3636 118.8 26.7841C118.591 27.2045 118.487 27.6553 118.487 28.1364V28.9091C118.487 29.5682 118.601 30.1269 118.828 30.5852C119.059 31.0398 119.379 31.3864 119.788 31.625C120.197 31.8598 120.673 31.9773 121.214 31.9773C121.567 31.9773 121.885 31.928 122.169 31.8295C122.457 31.7273 122.705 31.5758 122.913 31.375C123.122 31.1705 123.283 30.9167 123.396 30.6136L124.692 30.9773C124.555 31.4167 124.326 31.803 124.004 32.1364C123.682 32.4659 123.285 32.7235 122.811 32.9091C122.338 33.0909 121.805 33.1818 121.214 33.1818ZM129.436 33.2045C128.883 33.2045 128.381 33.1004 127.93 32.892C127.48 32.6799 127.122 32.375 126.857 31.9773C126.591 31.5758 126.459 31.0909 126.459 30.5227C126.459 30.0227 126.557 29.6174 126.754 29.3068C126.951 28.9924 127.214 28.7462 127.544 28.5682C127.874 28.3902 128.237 28.2576 128.635 28.1705C129.036 28.0795 129.44 28.0076 129.845 27.9545C130.375 27.8864 130.805 27.8352 131.135 27.8011C131.468 27.7633 131.711 27.7008 131.862 27.6136C132.018 27.5265 132.095 27.375 132.095 27.1591V27.1136C132.095 26.553 131.942 26.1174 131.635 25.8068C131.332 25.4962 130.872 25.3409 130.254 25.3409C129.614 25.3409 129.112 25.4811 128.749 25.7614C128.385 26.0417 128.129 26.3409 127.982 26.6591L126.709 26.2045C126.936 25.6742 127.239 25.2614 127.618 24.9659C128 24.6667 128.417 24.4583 128.868 24.3409C129.322 24.2197 129.769 24.1591 130.209 24.1591C130.489 24.1591 130.811 24.1932 131.175 24.2614C131.542 24.3258 131.896 24.4602 132.237 24.6648C132.582 24.8693 132.868 25.178 133.095 25.5909C133.322 26.0038 133.436 26.5568 133.436 27.25V33H132.095V31.8182H132.027C131.936 32.0076 131.785 32.2102 131.572 32.4261C131.36 32.642 131.078 32.8258 130.726 32.9773C130.374 33.1288 129.944 33.2045 129.436 33.2045ZM129.641 32C130.171 32 130.618 31.8958 130.982 31.6875C131.349 31.4792 131.625 31.2102 131.811 30.8807C132 30.5511 132.095 30.2045 132.095 29.8409V28.6136C132.038 28.6818 131.913 28.7443 131.72 28.8011C131.531 28.8542 131.311 28.9015 131.061 28.9432C130.815 28.9811 130.574 29.0152 130.339 29.0455C130.108 29.072 129.921 29.0947 129.777 29.1136C129.429 29.1591 129.103 29.233 128.8 29.3352C128.5 29.4337 128.258 29.5833 128.072 29.7841C127.891 29.9811 127.8 30.25 127.8 30.5909C127.8 31.0568 127.972 31.4091 128.317 31.6477C128.665 31.8826 129.107 32 129.641 32ZM139.679 24.2727V25.4091H135.156V24.2727H139.679ZM136.474 22.1818H137.815V30.5C137.815 30.8788 137.87 31.1629 137.98 31.3523C138.094 31.5379 138.238 31.6629 138.412 31.7273C138.59 31.7879 138.777 31.8182 138.974 31.8182C139.122 31.8182 139.243 31.8106 139.338 31.7955C139.433 31.7765 139.509 31.7614 139.565 31.75L139.838 32.9545C139.747 32.9886 139.62 33.0227 139.457 33.0568C139.295 33.0947 139.088 33.1136 138.838 33.1136C138.459 33.1136 138.088 33.0322 137.724 32.8693C137.365 32.7064 137.065 32.4583 136.827 32.125C136.592 31.7917 136.474 31.3712 136.474 30.8636V22.1818ZM145.261 33.1818C144.42 33.1818 143.695 32.9962 143.085 32.625C142.479 32.25 142.011 31.7273 141.682 31.0568C141.356 30.3826 141.193 29.5985 141.193 28.7045C141.193 27.8106 141.356 27.0227 141.682 26.3409C142.011 25.6553 142.47 25.1212 143.057 24.7386C143.648 24.3523 144.337 24.1591 145.125 24.1591C145.58 24.1591 146.028 24.2348 146.472 24.3864C146.915 24.5379 147.318 24.7841 147.682 25.125C148.045 25.4621 148.335 25.9091 148.551 26.4659C148.767 27.0227 148.875 27.7083 148.875 28.5227V29.0909H142.148V27.9318H147.511C147.511 27.4394 147.413 27 147.216 26.6136C147.023 26.2273 146.746 25.9223 146.386 25.6989C146.03 25.4754 145.61 25.3636 145.125 25.3636C144.591 25.3636 144.129 25.4962 143.739 25.7614C143.352 26.0227 143.055 26.3636 142.847 26.7841C142.638 27.2045 142.534 27.6553 142.534 28.1364V28.9091C142.534 29.5682 142.648 30.1269 142.875 30.5852C143.106 31.0398 143.426 31.3864 143.835 31.625C144.244 31.8598 144.72 31.9773 145.261 31.9773C145.614 31.9773 145.932 31.928 146.216 31.8295C146.504 31.7273 146.752 31.5758 146.96 31.375C147.169 31.1705 147.33 30.9167 147.443 30.6136L148.739 30.9773C148.602 31.4167 148.373 31.803 148.051 32.1364C147.729 32.4659 147.331 32.7235 146.858 32.9091C146.384 33.0909 145.852 33.1818 145.261 33.1818ZM156.074 33H154.597L158.869 21.3636H160.324L164.597 33H163.119L159.642 23.2045H159.551L156.074 33ZM156.619 28.4545H162.574V29.7045H156.619V28.4545ZM169.773 33.1818C168.955 33.1818 168.25 32.9886 167.659 32.6023C167.068 32.2159 166.614 31.6837 166.295 31.0057C165.977 30.3277 165.818 29.553 165.818 28.6818C165.818 27.7955 165.981 27.0133 166.307 26.3352C166.636 25.6534 167.095 25.1212 167.682 24.7386C168.273 24.3523 168.962 24.1591 169.75 24.1591C170.364 24.1591 170.917 24.2727 171.409 24.5C171.902 24.7273 172.305 25.0455 172.619 25.4545C172.934 25.8636 173.129 26.3409 173.205 26.8864H171.864C171.761 26.4886 171.534 26.1364 171.182 25.8295C170.833 25.5189 170.364 25.3636 169.773 25.3636C169.25 25.3636 168.792 25.5 168.398 25.7727C168.008 26.0417 167.703 26.4223 167.483 26.9148C167.267 27.4034 167.159 27.9773 167.159 28.6364C167.159 29.3106 167.265 29.8977 167.477 30.3977C167.693 30.8977 167.996 31.286 168.386 31.5625C168.78 31.839 169.242 31.9773 169.773 31.9773C170.121 31.9773 170.438 31.9167 170.722 31.7955C171.006 31.6742 171.246 31.5 171.443 31.2727C171.64 31.0455 171.78 30.7727 171.864 30.4545H173.205C173.129 30.9697 172.941 31.4337 172.642 31.8466C172.347 32.2557 171.955 32.5814 171.466 32.8239C170.981 33.0625 170.417 33.1818 169.773 33.1818ZM178.71 33.1818C177.892 33.1818 177.188 32.9886 176.597 32.6023C176.006 32.2159 175.551 31.6837 175.233 31.0057C174.915 30.3277 174.756 29.553 174.756 28.6818C174.756 27.7955 174.919 27.0133 175.244 26.3352C175.574 25.6534 176.032 25.1212 176.619 24.7386C177.21 24.3523 177.9 24.1591 178.688 24.1591C179.301 24.1591 179.854 24.2727 180.347 24.5C180.839 24.7273 181.242 25.0455 181.557 25.4545C181.871 25.8636 182.066 26.3409 182.142 26.8864H180.801C180.699 26.4886 180.472 26.1364 180.119 25.8295C179.771 25.5189 179.301 25.3636 178.71 25.3636C178.188 25.3636 177.729 25.5 177.335 25.7727C176.945 26.0417 176.64 26.4223 176.42 26.9148C176.205 27.4034 176.097 27.9773 176.097 28.6364C176.097 29.3106 176.203 29.8977 176.415 30.3977C176.631 30.8977 176.934 31.286 177.324 31.5625C177.718 31.839 178.18 31.9773 178.71 31.9773C179.059 31.9773 179.375 31.9167 179.659 31.7955C179.943 31.6742 180.184 31.5 180.381 31.2727C180.578 31.0455 180.718 30.7727 180.801 30.4545H182.142C182.066 30.9697 181.879 31.4337 181.58 31.8466C181.284 32.2557 180.892 32.5814 180.403 32.8239C179.919 33.0625 179.354 33.1818 178.71 33.1818ZM187.648 33.1818C186.86 33.1818 186.169 32.9943 185.574 32.6193C184.983 32.2443 184.521 31.7197 184.188 31.0455C183.858 30.3712 183.693 29.5833 183.693 28.6818C183.693 27.7727 183.858 26.9792 184.188 26.3011C184.521 25.6231 184.983 25.0966 185.574 24.7216C186.169 24.3466 186.86 24.1591 187.648 24.1591C188.436 24.1591 189.125 24.3466 189.716 24.7216C190.311 25.0966 190.773 25.6231 191.102 26.3011C191.436 26.9792 191.602 27.7727 191.602 28.6818C191.602 29.5833 191.436 30.3712 191.102 31.0455C190.773 31.7197 190.311 32.2443 189.716 32.6193C189.125 32.9943 188.436 33.1818 187.648 33.1818ZM187.648 31.9773C188.246 31.9773 188.739 31.8239 189.125 31.517C189.511 31.2102 189.797 30.8068 189.983 30.3068C190.169 29.8068 190.261 29.2652 190.261 28.6818C190.261 28.0985 190.169 27.5549 189.983 27.0511C189.797 26.5473 189.511 26.1402 189.125 25.8295C188.739 25.5189 188.246 25.3636 187.648 25.3636C187.049 25.3636 186.557 25.5189 186.17 25.8295C185.784 26.1402 185.498 26.5473 185.312 27.0511C185.127 27.5549 185.034 28.0985 185.034 28.6818C185.034 29.2652 185.127 29.8068 185.312 30.3068C185.498 30.8068 185.784 31.2102 186.17 31.517C186.557 31.8239 187.049 31.9773 187.648 31.9773ZM199.149 29.4318V24.2727H200.49V33H199.149V31.5227H199.058C198.854 31.9659 198.536 32.3428 198.104 32.6534C197.672 32.9602 197.126 33.1136 196.467 33.1136C195.922 33.1136 195.437 32.9943 195.013 32.7557C194.589 32.5133 194.255 32.1496 194.013 31.6648C193.77 31.1761 193.649 30.5606 193.649 29.8182V24.2727H194.99V29.7273C194.99 30.3636 195.168 30.8712 195.524 31.25C195.884 31.6288 196.342 31.8182 196.899 31.8182C197.232 31.8182 197.571 31.733 197.916 31.5625C198.265 31.392 198.556 31.1307 198.791 30.7784C199.03 30.4261 199.149 29.9773 199.149 29.4318ZM204.287 27.75V33H202.946V24.2727H204.241V25.6364H204.355C204.56 25.1932 204.87 24.8371 205.287 24.5682C205.704 24.2955 206.241 24.1591 206.901 24.1591C207.491 24.1591 208.009 24.2803 208.452 24.5227C208.895 24.7614 209.24 25.125 209.486 25.6136C209.732 26.0985 209.855 26.7121 209.855 27.4545V33H208.514V27.5455C208.514 26.8598 208.336 26.3258 207.98 25.9432C207.624 25.5568 207.135 25.3636 206.514 25.3636C206.086 25.3636 205.704 25.4564 205.366 25.642C205.033 25.8277 204.77 26.0985 204.577 26.4545C204.384 26.8106 204.287 27.2424 204.287 27.75ZM216.101 24.2727V25.4091H211.578V24.2727H216.101ZM212.896 22.1818H214.237V30.5C214.237 30.8788 214.292 31.1629 214.402 31.3523C214.516 31.5379 214.66 31.6629 214.834 31.7273C215.012 31.7879 215.199 31.8182 215.396 31.8182C215.544 31.8182 215.665 31.8106 215.76 31.7955C215.855 31.7765 215.93 31.7614 215.987 31.75L216.26 32.9545C216.169 32.9886 216.042 33.0227 215.879 33.0568C215.716 33.0947 215.51 33.1136 215.26 33.1136C214.881 33.1136 214.51 33.0322 214.146 32.8693C213.786 32.7064 213.487 32.4583 213.249 32.125C213.014 31.7917 212.896 31.3712 212.896 30.8636V22.1818Z" fill="#475569"/>
</svg>
