<svg width="301" height="58" viewBox="0 0 301 58" fill="none" xmlns="http://www.w3.org/2000/svg">
<path d="M275.5 1.42383H25.5C11.6929 1.42383 0.5 13.865 0.5 29.2119C0.5 44.5589 11.6929 57.0001 25.5 57.0001H275.5C289.307 57.0001 300.5 44.5589 300.5 29.2119C300.5 13.865 289.307 1.42383 275.5 1.42383Z" fill="white" stroke="#D1D5DB" stroke-opacity="0.6"/>
<path d="M258 20L246 33.3383" stroke="#64748B" stroke-width="1.5" stroke-linecap="round"/>
<path d="M246 20L258 33.3383" stroke="#64748B" stroke-width="1.5" stroke-linecap="round"/>
<path d="M136.273 25.0967H134.864C134.78 24.6914 134.634 24.3353 134.426 24.0285C134.222 23.7217 133.972 23.4641 133.676 23.2558C133.384 23.0436 133.061 22.8846 132.705 22.7785C132.348 22.6724 131.977 22.6194 131.591 22.6194C130.886 22.6194 130.248 22.7974 129.676 23.1535C129.108 23.5096 128.655 24.0342 128.318 24.7274C127.985 25.4205 127.818 26.2709 127.818 27.2785C127.818 28.2861 127.985 29.1365 128.318 29.8296C128.655 30.5228 129.108 31.0474 129.676 31.4035C130.248 31.7596 130.886 31.9376 131.591 31.9376C131.977 31.9376 132.348 31.8846 132.705 31.7785C133.061 31.6724 133.384 31.5152 133.676 31.3069C133.972 31.0948 134.222 30.8353 134.426 30.5285C134.634 30.2179 134.78 29.8618 134.864 29.4603H136.273C136.167 30.055 135.973 30.5872 135.693 31.0569C135.413 31.5266 135.064 31.9262 134.648 32.2558C134.231 32.5815 133.763 32.8296 133.244 33.0001C132.729 33.1705 132.178 33.2558 131.591 33.2558C130.598 33.2558 129.716 33.0133 128.943 32.5285C128.17 32.0436 127.563 31.3543 127.119 30.4603C126.676 29.5664 126.455 28.5058 126.455 27.2785C126.455 26.0512 126.676 24.9906 127.119 24.0967C127.563 23.2027 128.17 22.5133 128.943 22.0285C129.716 21.5436 130.598 21.3012 131.591 21.3012C132.178 21.3012 132.729 21.3865 133.244 21.5569C133.763 21.7274 134.231 21.9774 134.648 22.3069C135.064 22.6327 135.413 23.0304 135.693 23.5001C135.973 23.966 136.167 24.4982 136.273 25.0967ZM140.936 33.3012C140.383 33.3012 139.881 33.1971 139.43 32.9887C138.98 32.7766 138.622 32.4717 138.357 32.074C138.091 31.6724 137.959 31.1876 137.959 30.6194C137.959 30.1194 138.057 29.7141 138.254 29.4035C138.451 29.0891 138.714 28.8429 139.044 28.6649C139.374 28.4868 139.737 28.3543 140.135 28.2671C140.536 28.1762 140.94 28.1043 141.345 28.0512C141.875 27.983 142.305 27.9319 142.635 27.8978C142.968 27.8599 143.211 27.7974 143.362 27.7103C143.518 27.6232 143.595 27.4717 143.595 27.2558V27.2103C143.595 26.6497 143.442 26.2141 143.135 25.9035C142.832 25.5929 142.372 25.4376 141.754 25.4376C141.114 25.4376 140.612 25.5777 140.249 25.858C139.885 26.1383 139.629 26.4376 139.482 26.7558L138.209 26.3012C138.436 25.7709 138.739 25.358 139.118 25.0626C139.5 24.7633 139.917 24.555 140.368 24.4376C140.822 24.3164 141.269 24.2558 141.709 24.2558C141.989 24.2558 142.311 24.2899 142.675 24.358C143.042 24.4224 143.396 24.5569 143.737 24.7615C144.082 24.966 144.368 25.2747 144.595 25.6876C144.822 26.1005 144.936 26.6535 144.936 27.3467V33.0967H143.595V31.9149H143.527C143.436 32.1043 143.285 32.3069 143.072 32.5228C142.86 32.7387 142.578 32.9224 142.226 33.074C141.874 33.2255 141.444 33.3012 140.936 33.3012ZM141.141 32.0967C141.671 32.0967 142.118 31.9925 142.482 31.7842C142.849 31.5758 143.125 31.3069 143.311 30.9774C143.5 30.6478 143.595 30.3012 143.595 29.9376V28.7103C143.538 28.7785 143.413 28.841 143.22 28.8978C143.031 28.9508 142.811 28.9982 142.561 29.0399C142.315 29.0777 142.074 29.1118 141.839 29.1421C141.608 29.1686 141.421 29.1914 141.277 29.2103C140.929 29.2558 140.603 29.3296 140.3 29.4319C140 29.5304 139.758 29.68 139.572 29.8808C139.391 30.0777 139.3 30.3467 139.3 30.6876C139.3 31.1535 139.472 31.5058 139.817 31.7444C140.165 31.9793 140.607 32.0967 141.141 32.0967ZM148.724 27.8467V33.0967H147.384V24.3694H148.679V25.733H148.793C148.997 25.2899 149.308 24.9338 149.724 24.6649C150.141 24.3921 150.679 24.2558 151.338 24.2558C151.929 24.2558 152.446 24.377 152.889 24.6194C153.332 24.858 153.677 25.2217 153.923 25.7103C154.17 26.1952 154.293 26.8088 154.293 27.5512V33.0967H152.952V27.6421C152.952 26.9565 152.774 26.4224 152.418 26.0399C152.062 25.6535 151.573 25.4603 150.952 25.4603C150.524 25.4603 150.141 25.5531 149.804 25.7387C149.471 25.9243 149.207 26.1952 149.014 26.5512C148.821 26.9073 148.724 27.3391 148.724 27.8467ZM160.288 33.2785C159.47 33.2785 158.766 33.0853 158.175 32.699C157.584 32.3126 157.129 31.7804 156.811 31.1024C156.493 30.4243 156.334 29.6497 156.334 28.7785C156.334 27.8921 156.497 27.1099 156.822 26.4319C157.152 25.7501 157.61 25.2179 158.197 24.8353C158.788 24.449 159.478 24.2558 160.266 24.2558C160.879 24.2558 161.432 24.3694 161.925 24.5967C162.417 24.824 162.821 25.1421 163.135 25.5512C163.449 25.9603 163.644 26.4376 163.72 26.983H162.379C162.277 26.5853 162.05 26.233 161.697 25.9262C161.349 25.6156 160.879 25.4603 160.288 25.4603C159.766 25.4603 159.307 25.5967 158.913 25.8694C158.523 26.1383 158.218 26.519 157.999 27.0115C157.783 27.5001 157.675 28.074 157.675 28.733C157.675 29.4073 157.781 29.9944 157.993 30.4944C158.209 30.9944 158.512 31.3827 158.902 31.6592C159.296 31.9357 159.758 32.074 160.288 32.074C160.637 32.074 160.953 32.0133 161.237 31.8921C161.521 31.7709 161.762 31.5967 161.959 31.3694C162.156 31.1421 162.296 30.8694 162.379 30.5512H163.72C163.644 31.0664 163.457 31.5304 163.158 31.9433C162.862 32.3524 162.47 32.6781 161.982 32.9205C161.497 33.1592 160.932 33.2785 160.288 33.2785ZM169.339 33.2785C168.499 33.2785 167.773 33.0929 167.163 32.7217C166.557 32.3467 166.089 31.824 165.76 31.1535C165.434 30.4793 165.271 29.6952 165.271 28.8012C165.271 27.9073 165.434 27.1194 165.76 26.4376C166.089 25.752 166.548 25.2179 167.135 24.8353C167.726 24.449 168.415 24.2558 169.203 24.2558C169.658 24.2558 170.107 24.3315 170.55 24.483C170.993 24.6346 171.396 24.8808 171.76 25.2217C172.124 25.5588 172.413 26.0058 172.629 26.5626C172.845 27.1194 172.953 27.805 172.953 28.6194V29.1876H166.226V28.0285H171.589C171.589 27.5361 171.491 27.0967 171.294 26.7103C171.101 26.324 170.824 26.019 170.464 25.7955C170.108 25.5721 169.688 25.4603 169.203 25.4603C168.669 25.4603 168.207 25.5929 167.817 25.858C167.43 26.1194 167.133 26.4603 166.925 26.8808C166.716 27.3012 166.612 27.752 166.612 28.233V29.0058C166.612 29.6649 166.726 30.2236 166.953 30.6819C167.184 31.1365 167.504 31.483 167.913 31.7217C168.322 31.9565 168.798 32.074 169.339 32.074C169.692 32.074 170.01 32.0247 170.294 31.9262C170.582 31.824 170.83 31.6724 171.038 31.4717C171.247 31.2671 171.408 31.0133 171.521 30.7103L172.817 31.074C172.68 31.5133 172.451 31.8997 172.129 32.233C171.807 32.5626 171.41 32.8202 170.936 33.0058C170.463 33.1876 169.93 33.2785 169.339 33.2785ZM176.334 21.4603V33.0967H174.993V21.4603H176.334Z" fill="#475569"/>
</svg>
