<svg width="300" height="52" viewBox="0 0 300 52" fill="none" xmlns="http://www.w3.org/2000/svg">
<path d="M274 0H26C11.6406 0 0 11.6406 0 26C0 40.3594 11.6406 52 26 52H274C288.359 52 300 40.3594 300 26C300 11.6406 288.359 0 274 0Z" fill="url(#paint0_linear_64_823)"/>
<path d="M251 26H265M265 26L258 19M265 26L258 33" stroke="white" stroke-width="2" stroke-linecap="round" stroke-linejoin="round"/>
<path d="M122.324 22.7102C122.278 22.2519 122.083 21.8958 121.739 21.642C121.394 21.3883 120.926 21.2614 120.335 21.2614C119.934 21.2614 119.595 21.3182 119.318 21.4318C119.042 21.5417 118.83 21.6951 118.682 21.892C118.538 22.089 118.466 22.3125 118.466 22.5625C118.458 22.7708 118.502 22.9527 118.597 23.108C118.695 23.2633 118.83 23.3977 119 23.5114C119.17 23.6212 119.367 23.7178 119.591 23.8011C119.814 23.8807 120.053 23.9489 120.307 24.0057L121.352 24.2557C121.86 24.3693 122.326 24.5208 122.75 24.7102C123.174 24.8996 123.542 25.1326 123.852 25.4091C124.163 25.6856 124.403 26.0114 124.574 26.3864C124.748 26.7614 124.837 27.1913 124.841 27.6761C124.837 28.3883 124.655 29.0057 124.295 29.5284C123.939 30.0473 123.424 30.4508 122.75 30.7386C122.08 31.0227 121.271 31.1648 120.324 31.1648C119.384 31.1648 118.566 31.0208 117.869 30.733C117.176 30.4451 116.634 30.0189 116.244 29.4545C115.858 28.8864 115.655 28.1837 115.636 27.3466H118.017C118.044 27.7367 118.155 28.0625 118.352 28.3239C118.553 28.5814 118.82 28.7765 119.153 28.9091C119.491 29.0379 119.871 29.1023 120.295 29.1023C120.712 29.1023 121.074 29.0417 121.381 28.9205C121.691 28.7992 121.932 28.6307 122.102 28.4148C122.273 28.1989 122.358 27.9508 122.358 27.6705C122.358 27.4091 122.28 27.1894 122.125 27.0114C121.973 26.8333 121.75 26.6818 121.455 26.5568C121.163 26.4318 120.805 26.3182 120.381 26.2159L119.114 25.8977C118.133 25.6591 117.358 25.286 116.79 24.7784C116.222 24.2708 115.939 23.5871 115.943 22.7273C115.939 22.0227 116.127 21.4072 116.506 20.8807C116.888 20.3542 117.413 19.9432 118.08 19.6477C118.746 19.3523 119.504 19.2045 120.352 19.2045C121.216 19.2045 121.97 19.3523 122.614 19.6477C123.261 19.9432 123.765 20.3542 124.125 20.8807C124.485 21.4072 124.67 22.017 124.682 22.7102H122.324ZM126.45 31V22.2727H128.871V31H126.45ZM127.666 21.1477C127.306 21.1477 126.998 21.0284 126.74 20.7898C126.486 20.5473 126.359 20.2576 126.359 19.9205C126.359 19.5871 126.486 19.3011 126.74 19.0625C126.998 18.8201 127.306 18.6989 127.666 18.6989C128.026 18.6989 128.333 18.8201 128.587 19.0625C128.844 19.3011 128.973 19.5871 128.973 19.9205C128.973 20.2576 128.844 20.5473 128.587 20.7898C128.333 21.0284 128.026 21.1477 127.666 21.1477ZM134.741 34.4545C133.957 34.4545 133.285 34.3466 132.724 34.1307C132.168 33.9186 131.724 33.6288 131.395 33.2614C131.065 32.8939 130.851 32.4811 130.753 32.0227L132.991 31.7216C133.06 31.8958 133.168 32.0587 133.315 32.2102C133.463 32.3617 133.658 32.483 133.901 32.5739C134.147 32.6686 134.446 32.7159 134.798 32.7159C135.325 32.7159 135.759 32.5871 136.099 32.3295C136.444 32.0758 136.616 31.6496 136.616 31.0511V29.4545H136.514C136.408 29.697 136.249 29.9261 136.037 30.142C135.825 30.358 135.552 30.5341 135.219 30.6705C134.885 30.8068 134.488 30.875 134.026 30.875C133.37 30.875 132.774 30.7235 132.236 30.4205C131.702 30.1136 131.276 29.6458 130.957 29.017C130.643 28.3845 130.486 27.5852 130.486 26.6193C130.486 25.6307 130.647 24.8049 130.969 24.142C131.291 23.4792 131.719 22.983 132.253 22.6534C132.791 22.3239 133.38 22.1591 134.02 22.1591C134.509 22.1591 134.918 22.2424 135.247 22.4091C135.577 22.572 135.842 22.7765 136.043 23.0227C136.247 23.2652 136.404 23.5038 136.514 23.7386H136.605V22.2727H139.009V31.0852C139.009 31.8277 138.827 32.4489 138.463 32.9489C138.099 33.4489 137.596 33.8239 136.952 34.0739C136.312 34.3277 135.575 34.4545 134.741 34.4545ZM134.793 29.0568C135.183 29.0568 135.512 28.9602 135.781 28.767C136.054 28.5701 136.262 28.2898 136.406 27.9261C136.554 27.5587 136.628 27.1193 136.628 26.608C136.628 26.0966 136.556 25.6534 136.412 25.2784C136.268 24.8996 136.06 24.6061 135.787 24.3977C135.514 24.1894 135.183 24.0852 134.793 24.0852C134.395 24.0852 134.06 24.1932 133.787 24.4091C133.514 24.6212 133.308 24.9167 133.168 25.2955C133.027 25.6742 132.957 26.1117 132.957 26.608C132.957 27.1117 133.027 27.5473 133.168 27.9148C133.312 28.2784 133.518 28.5606 133.787 28.7614C134.06 28.9583 134.395 29.0568 134.793 29.0568ZM143.355 25.9545V31H140.935V22.2727H143.241V23.8125H143.344C143.537 23.3049 143.861 22.9034 144.315 22.608C144.77 22.3087 145.321 22.1591 145.969 22.1591C146.575 22.1591 147.103 22.2917 147.554 22.5568C148.005 22.822 148.355 23.2008 148.605 23.6932C148.855 24.1818 148.98 24.7652 148.98 25.4432V31H146.56V25.875C146.563 25.3409 146.427 24.9242 146.151 24.625C145.874 24.322 145.493 24.1705 145.009 24.1705C144.683 24.1705 144.395 24.2405 144.145 24.3807C143.899 24.5208 143.705 24.7254 143.565 24.9943C143.429 25.2595 143.359 25.5795 143.355 25.9545ZM157.097 19.3636V31H154.636V19.3636H157.097ZM161.496 25.9545V31H159.075V22.2727H161.382V23.8125H161.484C161.678 23.3049 162.001 22.9034 162.456 22.608C162.911 22.3087 163.462 22.1591 164.109 22.1591C164.715 22.1591 165.244 22.2917 165.695 22.5568C166.145 22.822 166.496 23.2008 166.746 23.6932C166.996 24.1818 167.121 24.7652 167.121 25.4432V31H164.7V25.875C164.704 25.3409 164.568 24.9242 164.291 24.625C164.015 24.322 163.634 24.1705 163.149 24.1705C162.823 24.1705 162.536 24.2405 162.286 24.3807C162.039 24.5208 161.846 24.7254 161.706 24.9943C161.57 25.2595 161.5 25.5795 161.496 25.9545Z" fill="white"/>
<defs>
<linearGradient id="paint0_linear_64_823" x1="0" y1="0" x2="30000" y2="0" gradientUnits="userSpaceOnUse">
<stop stop-color="#0EA5E9"/>
<stop offset="1" stop-color="#3B82F6"/>
</linearGradient>
</defs>
</svg>
