<svg width="17" height="17" viewBox="0 0 17 17" fill="none" xmlns="http://www.w3.org/2000/svg">
<path d="M8.5 16.5C12.9183 16.5 16.5 12.9183 16.5 8.5C16.5 4.08172 12.9183 0.5 8.5 0.5C4.08172 0.5 0.5 4.08172 0.5 8.5C0.5 12.9183 4.08172 16.5 8.5 16.5Z" fill="#3B82F6" fill-opacity="0.1" stroke="#3B82F6" stroke-opacity="0.2"/>
<path d="M8.5 11.5C10.1569 11.5 11.5 10.1569 11.5 8.5C11.5 6.84315 10.1569 5.5 8.5 5.5C6.84315 5.5 5.5 6.84315 5.5 8.5C5.5 10.1569 6.84315 11.5 8.5 11.5Z" fill="#3B82F6"/>
<path opacity="0.6" d="M8.5 14.5C11.8137 14.5 14.5 11.8137 14.5 8.5C14.5 5.18629 11.8137 2.5 8.5 2.5C5.18629 2.5 2.5 5.18629 2.5 8.5C2.5 11.8137 5.18629 14.5 8.5 14.5Z" stroke="#3B82F6"/>
</svg>
