<svg width="375" height="812" viewBox="0 0 375 812" fill="none" xmlns="http://www.w3.org/2000/svg">
<path d="M375 0H0V812H375V0Z" fill="url(#paint0_linear_62_2)"/>
<g filter="url(#filter0_f_62_2)">
<path d="M80 210C113.137 210 140 183.137 140 150C140 116.863 113.137 90 80 90C46.8629 90 20 116.863 20 150C20 183.137 46.8629 210 80 210Z" fill="#0EA5E9" fill-opacity="0.05"/>
</g>
<g filter="url(#filter1_f_62_2)">
<path d="M320 340C342.091 340 360 322.091 360 300C360 277.909 342.091 260 320 260C297.909 260 280 277.909 280 300C280 322.091 297.909 340 320 340Z" fill="#3B82F6" fill-opacity="0.04"/>
</g>
<path d="M50 635C69.33 635 85 619.33 85 600C85 580.67 69.33 565 50 565C30.67 565 15 580.67 15 600C15 619.33 30.67 635 50 635Z" fill="#0EA5E9" fill-opacity="0.03"/>
<defs>
<filter id="filter0_f_62_2" x="16" y="86" width="128" height="128" filterUnits="userSpaceOnUse" color-interpolation-filters="sRGB">
<feFlood flood-opacity="0" result="BackgroundImageFix"/>
<feBlend mode="normal" in="SourceGraphic" in2="BackgroundImageFix" result="shape"/>
<feGaussianBlur stdDeviation="2" result="effect1_foregroundBlur_62_2"/>
</filter>
<filter id="filter1_f_62_2" x="276" y="256" width="88" height="88" filterUnits="userSpaceOnUse" color-interpolation-filters="sRGB">
<feFlood flood-opacity="0" result="BackgroundImageFix"/>
<feBlend mode="normal" in="SourceGraphic" in2="BackgroundImageFix" result="shape"/>
<feGaussianBlur stdDeviation="2" result="effect1_foregroundBlur_62_2"/>
</filter>
<linearGradient id="paint0_linear_62_2" x1="0" y1="0" x2="61815.9" y2="28548" gradientUnits="userSpaceOnUse">
<stop stop-color="#F8FAFC"/>
<stop offset="0.5" stop-color="#F1F5F9"/>
<stop offset="1" stop-color="#E2E8F0"/>
</linearGradient>
</defs>
</svg>
