<svg width="302" height="52" viewBox="0 0 302 52" fill="none" xmlns="http://www.w3.org/2000/svg">
<path d="M289 1H13C6.37258 1 1 6.37258 1 13V39C1 45.6274 6.37258 51 13 51H289C295.627 51 301 45.6274 301 39V13C301 6.37258 295.627 1 289 1Z" fill="white" stroke="#D1D5DB" stroke-opacity="0.8"/>
<path d="M28 25H20C19.4477 25 19 25.4477 19 26V31C19 31.5523 19.4477 32 20 32H28C28.5523 32 29 31.5523 29 31V26C29 25.4477 28.5523 25 28 25Z" stroke="#9CA3AF" stroke-width="1.5"/>
<path d="M22 25V23C22 22.4696 22.2107 21.9609 22.5858 21.5858C22.9609 21.2107 23.4696 21 24 21C24.5304 21 25.0391 21.2107 25.4142 21.5858C25.7893 21.9609 26 22.4696 26 23V25" stroke="#9CA3AF" stroke-width="1.5"/>
<path d="M278 29C279.657 29 281 27.6569 281 26C281 24.3431 279.657 23 278 23C276.343 23 275 24.3431 275 26C275 27.6569 276.343 29 278 29Z" stroke="#9CA3AF"/>
<path d="M272 26C272 26 274 22 278 22C282 22 284 26 284 26C284 26 282 30 278 30C274 30 272 26 272 26Z" stroke="#9CA3AF"/>
</svg>
