<svg width="302" height="51" viewBox="0 0 302 51" fill="none" xmlns="http://www.w3.org/2000/svg">
<path d="M291 1.34229H11C5.47715 1.34229 1 6.31875 1 12.4575V39.1341C1 45.2729 5.47715 50.2494 11 50.2494H291C296.523 50.2494 301 45.2729 301 39.1341V12.4575C301 6.31875 296.523 1.34229 291 1.34229Z" fill="white" stroke="#D1D5DB" stroke-opacity="0.8"/>
<path d="M28.5 19.8105H18.5C17.3954 19.8105 16.5 20.8058 16.5 22.0336V28.7027C16.5 29.9305 17.3954 30.9258 18.5 30.9258H28.5C29.6046 30.9258 30.5 29.9305 30.5 28.7027V22.0336C30.5 20.8058 29.6046 19.8105 28.5 19.8105Z" stroke="#9CA3AF" stroke-width="1.5"/>
<path d="M23.5 27.5911C24.6046 27.5911 25.5 26.5958 25.5 25.3681C25.5 24.1403 24.6046 23.145 23.5 23.145C22.3954 23.145 21.5 24.1403 21.5 25.3681C21.5 26.5958 22.3954 27.5911 23.5 27.5911Z" fill="#9CA3AF"/>
</svg>
