<svg width="302" height="52" viewBox="0 0 302 52" fill="none" xmlns="http://www.w3.org/2000/svg">
<path d="M289 1H13C6.37258 1 1 6.37258 1 13V39C1 45.6274 6.37258 51 13 51H289C295.627 51 301 45.6274 301 39V13C301 6.37258 295.627 1 289 1Z" fill="white" stroke="#D1D5DB" stroke-opacity="0.8"/>
<path d="M24 32C27.3137 32 30 29.3137 30 26C30 22.6863 27.3137 20 24 20C20.6863 20 18 22.6863 18 26C18 29.3137 20.6863 32 24 32Z" stroke="#9CA3AF" stroke-width="1.5"/>
<path d="M21 26C21 25.2044 21.3161 24.4413 21.8787 23.8787C22.4413 23.3161 23.2044 23 24 23C24.7956 23 25.5587 23.3161 26.1213 23.8787C26.6839 24.4413 27 25.2044 27 26" stroke="#9CA3AF" stroke-width="1.5"/>
</svg>
