<svg width="301" height="51" viewBox="0 0 301 51" fill="none" xmlns="http://www.w3.org/2000/svg">
<path d="M290.5 0.650879H10.5C4.97715 0.650879 0.5 5.62734 0.5 11.7661V38.4427C0.5 44.5815 4.97715 49.558 10.5 49.558H290.5C296.023 49.558 300.5 44.5815 300.5 38.4427V11.7661C300.5 5.62734 296.023 0.650879 290.5 0.650879Z" fill="white" stroke="#D1D5DB" stroke-opacity="0.8"/>
<path d="M13 16H29C30.1 16 31 17.0004 31 18.223V31.5613C31 32.784 30.1 33.7844 29 33.7844H13C11.9 33.7844 11 32.784 11 31.5613V18.223C11 17.0004 11.9 16 13 16Z" stroke="#9CA3AF" stroke-width="1.5"/>
<path d="M31 18.2227L21 26.0033L11 18.2227" stroke="#9CA3AF" stroke-width="1.5"/>
</svg>
