<svg width="301" height="51" viewBox="0 0 301 51" fill="none" xmlns="http://www.w3.org/2000/svg">
<path d="M290.5 1.3418H10.5C4.97715 1.3418 0.5 6.31826 0.5 12.457V39.1336C0.5 45.2724 4.97715 50.2489 10.5 50.2489H290.5C296.023 50.2489 300.5 45.2724 300.5 39.1336V12.457C300.5 6.31826 296.023 1.3418 290.5 1.3418Z" fill="white" stroke="#D1D5DB" stroke-opacity="0.8"/>
<path d="M33.8881 31.5841V34.9186C33.8892 35.2282 33.8322 35.5346 33.7206 35.8182C33.6091 36.1019 33.4454 36.3565 33.2402 36.5658C33.035 36.775 32.7927 36.9344 32.5289 37.0335C32.265 37.1327 31.9855 37.1695 31.7081 37.1417C28.631 36.77 25.6751 35.6013 23.0781 33.7293C20.6619 32.0227 18.6135 29.7458 17.0781 27.0602C15.3881 24.1604 14.3364 20.8589 14.0081 17.4232C13.9831 17.1159 14.016 16.8061 14.1046 16.5136C14.1932 16.2211 14.3357 15.9523 14.5229 15.7244C14.7101 15.4965 14.9379 15.3143 15.1919 15.1896C15.4459 15.0649 15.7205 15.0004 15.9981 15.0001H18.9981C19.4834 14.9948 19.9539 15.1858 20.3219 15.5376C20.6898 15.8893 20.9302 16.3778 20.9981 16.9119C21.1247 17.9791 21.3596 19.0269 21.6981 20.0353C21.8327 20.4332 21.8618 20.8655 21.782 21.2812C21.7023 21.6969 21.517 22.0784 21.2481 22.3806L19.9781 23.7923C21.4017 26.575 23.4746 28.8791 25.9781 30.4614L27.2481 29.0498C27.52 28.7509 27.8633 28.545 28.2372 28.4563C28.6112 28.3677 29.0002 28.4 29.3581 28.5496C30.2654 28.9259 31.2081 29.1869 32.1681 29.3277C32.6539 29.4038 33.0975 29.6758 33.4146 30.0918C33.7318 30.5079 33.9003 31.0389 33.8881 31.5841Z" stroke="#9CA3AF" stroke-width="1.5"/>
</svg>
