<svg width="302" height="51" viewBox="0 0 302 51" fill="none" xmlns="http://www.w3.org/2000/svg">
<path d="M291 1.34229H11C5.47715 1.34229 1 6.31875 1 12.4575V39.1341C1 45.2729 5.47715 50.2494 11 50.2494H291C296.523 50.2494 301 45.2729 301 39.1341V12.4575C301 6.31875 296.523 1.34229 291 1.34229Z" fill="white" stroke="#D1D5DB" stroke-opacity="0.8"/>
<path d="M32.5 33.3156V31.0926C32.5 29.9134 32.0786 28.7825 31.3284 27.9487C30.5783 27.1149 29.5609 26.6465 28.5 26.6465H20.5C19.4391 26.6465 18.4217 27.1149 17.6716 27.9487C16.9214 28.7825 16.5 29.9134 16.5 31.0926V33.3156" stroke="#9CA3AF" stroke-width="1.5"/>
<path d="M24.5 22.2008C26.7091 22.2008 28.5 20.2102 28.5 17.7547C28.5 15.2992 26.7091 13.3086 24.5 13.3086C22.2909 13.3086 20.5 15.2992 20.5 17.7547C20.5 20.2102 22.2909 22.2008 24.5 22.2008Z" stroke="#9CA3AF" stroke-width="1.5"/>
<path d="M276 32.4648C279.314 32.4648 282 29.4789 282 25.7956C282 22.1123 279.314 19.1265 276 19.1265C272.686 19.1265 270 22.1123 270 25.7956C270 29.4789 272.686 32.4648 276 32.4648Z" fill="#22C55E" fill-opacity="0.2" stroke="#22C55E"/>
</svg>
